<svg width="49" height="50" viewBox="0 0 49 50" fill="none" xmlns="http://www.w3.org/2000/svg">
<rect y="0.020874" width="49" height="49.051" rx="10" fill="#F3F8FC"/>
<path fill-rule="evenodd" clip-rule="evenodd" d="M27.9301 19.1508C27.9301 21.0437 26.3915 22.5844 24.5001 22.5844C22.6087 22.5844 21.0701 21.0437 21.0701 19.1508C21.0701 17.258 22.6087 15.7173 24.5001 15.7173C26.3915 15.7173 27.9301 17.258 27.9301 19.1508ZM26.95 19.1478C26.95 17.7966 25.8509 16.6973 24.5 16.6973C23.1491 16.6973 22.05 17.7966 22.05 19.1478C22.05 20.4991 23.1491 21.5984 24.5 21.5984C25.8509 21.5984 26.95 20.4991 26.95 19.1478Z" fill="#39ACFD"/>
<path fill-rule="evenodd" clip-rule="evenodd" d="M31.9306 25.8217L24.4135 36.6899L16.8851 25.8065C14.0769 22.0585 14.4846 15.8737 17.7691 12.5863C19.5439 10.8096 21.9037 9.83105 24.4135 9.83105C26.9233 9.83105 29.2831 10.8096 31.0579 12.5867C34.3423 15.8741 34.75 22.059 31.9306 25.8217ZM24.4133 10.8111C22.1652 10.8111 20.0518 11.6876 18.4618 13.2788C15.4978 16.2459 15.1322 21.8317 17.6802 25.2319L24.4133 34.965L31.1356 25.2466C33.6944 21.8317 33.3294 16.2459 30.3649 13.2788C28.7748 11.6876 26.6614 10.8111 24.4133 10.8111Z" fill="#39ACFD"/>
<path d="M30.4374 30.6518C30.1679 30.6178 29.9248 30.8175 29.8935 31.0956C29.8621 31.3738 30.0542 31.6256 30.3227 31.658C35.4756 32.2853 38.2201 33.9755 38.2201 34.9549C38.2201 36.33 33.0006 38.2483 24.5001 38.2483C15.9995 38.2483 10.78 36.33 10.78 34.9549C10.78 33.9755 13.5245 32.2853 18.6774 31.658C18.9459 31.6256 19.138 31.3733 19.1066 31.0956C19.0748 30.8175 18.8317 30.6168 18.5627 30.6518C13.4035 31.2801 9.80005 33.0493 9.80005 34.9549C9.80005 37.0951 14.8495 39.2616 24.5001 39.2616C34.1506 39.2616 39.2001 37.0951 39.2001 34.9549C39.2001 33.0493 35.5966 31.2801 30.4374 30.6518Z" fill="#39ACFD"/>
</svg>
