<svg width="49" height="50" viewBox="0 0 49 50" fill="none" xmlns="http://www.w3.org/2000/svg">
<rect y="0.200928" width="49" height="49.0513" rx="10" fill="#F3F8FC"/>
<path fill-rule="evenodd" clip-rule="evenodd" d="M29.3696 28.6687C30.7798 26.6845 31.2722 24.4691 31.442 23.0435H31.6728C32.0309 23.0435 32.3618 22.8499 32.5362 22.5382C33.0039 21.7027 33.0039 20.7051 32.5362 19.8696C32.3617 19.5578 32.0309 19.3642 31.6728 19.3642H31.6273V18.3123C31.6273 15.5847 29.973 13.1569 27.4679 12.1405L27.4826 11.8625C27.5039 11.4577 27.3084 11.0643 26.9721 10.8359L26.9386 10.8131C25.7424 10.0006 24.1427 10.0119 22.9581 10.8413C22.8963 10.8845 22.8395 10.933 22.7882 10.9857C22.583 11.1969 22.465 11.4775 22.46 11.776C22.4596 11.8008 22.4599 11.8258 22.461 11.8509L22.4651 11.9398L22.4734 12.1188C19.9356 13.1214 18.2597 15.5579 18.2597 18.3123V19.3642H18.2142C17.8561 19.3642 17.5252 19.5578 17.3508 19.8696C16.8831 20.7051 16.8831 21.7026 17.3508 22.5382C17.5253 22.8499 17.8561 23.0435 18.2142 23.0435H18.4451C18.6148 24.4691 19.1073 26.6844 20.5174 28.6687C21.0379 29.401 21.7084 29.975 22.475 30.3635V30.9111H22.2721C20.9285 30.9111 19.6762 31.4433 18.7459 32.4098C17.8156 33.3762 17.3336 34.6456 17.3888 35.984L17.4724 38.0101C17.5008 38.7007 18.0662 39.2417 18.7595 39.2417H19.9342H21.8934H27.9938H29.953H31.1277C31.821 39.2417 32.3864 38.7007 32.4149 38.0101L32.4985 35.984C32.5537 34.6455 32.0717 33.3762 31.1414 32.4098C30.211 31.4433 28.9587 30.9111 27.6151 30.9111H27.4123V30.3635C28.1787 29.975 28.8492 29.401 29.3696 28.6687ZM18.7594 38.1033C18.6783 38.1033 18.6122 38.0401 18.6089 37.9594L18.5253 35.9354C18.4977 35.2691 18.6451 34.6257 18.9467 34.0532L19.3119 38.1034H18.7594V38.1033ZM31.3618 35.9354C31.3893 35.2692 31.2419 34.6257 30.9403 34.0532L30.5752 38.1034H31.1277C31.2087 38.1034 31.2748 38.0402 31.2782 37.9595L31.3618 35.9354ZM18.3607 21.9077V21.9078H18.3042C18.0998 21.4931 18.0852 21.0194 18.2598 20.596C18.2736 20.5627 18.2881 20.5296 18.3042 20.4969H25.2664C25.5063 20.4969 25.711 20.3487 25.7946 20.1392C25.8205 20.0744 25.8352 20.0039 25.8352 19.9298C25.8352 19.6167 25.5805 19.3628 25.2664 19.3628H19.3974V18.3109C19.3974 16.1599 20.6295 14.2436 22.5295 13.3318L22.7304 17.6859C22.7449 17.9988 23.0113 18.2427 23.3247 18.2262C23.6386 18.2118 23.8812 17.9465 23.8668 17.6337L23.5975 11.7976C23.597 11.7859 23.6023 11.775 23.6119 11.7682C24.4114 11.2085 25.4909 11.2009 26.2983 11.7493L26.3318 11.772C26.3416 11.7786 26.3473 11.7901 26.3467 11.8018L26.3101 12.4964V12.4965L26.0393 17.6299C26.0229 17.9427 26.2638 18.2096 26.5775 18.226C26.5876 18.2266 26.5977 18.2268 26.6078 18.2268C26.9082 18.2268 27.1594 17.9921 27.1754 17.6895L27.4039 13.3544C29.2762 14.276 30.4898 16.183 30.4898 18.3108V19.3627H29.823C29.5088 19.3627 29.2542 19.6166 29.2542 19.9297C29.2542 20.0038 29.2689 20.0743 29.2948 20.1391C29.3784 20.3485 29.5831 20.4968 29.823 20.4968H31.583C31.5991 20.5294 31.6136 20.5625 31.6274 20.5959C31.802 21.0193 31.7874 21.493 31.583 21.9077H31.5265H18.3607ZM19.9785 32.8279L20.4541 38.1082H21.2712L20.7539 32.3662C20.4785 32.4882 20.2177 32.6433 19.9785 32.8279ZM29.1333 32.3662C29.4087 32.4881 29.6695 32.6433 29.9087 32.8279L29.4331 38.1082H28.616L29.1333 32.3662ZM28.0178 32.0664C27.885 32.0524 27.7506 32.0449 27.6149 32.0449H27.3412C27.0775 33.1212 26.1028 33.9225 24.9434 33.9225C23.784 33.9225 22.8092 33.1212 22.5455 32.0449H22.2719C22.1362 32.0449 22.0018 32.0524 21.869 32.0664L22.4132 38.1082H27.4736L28.0178 32.0664ZM23.6126 31.4605V30.9108V30.7849C23.845 30.8421 24.0826 30.8841 24.3247 30.9108C24.5282 30.9331 24.7347 30.945 24.9436 30.945C25.1525 30.945 25.359 30.9332 25.5626 30.9108C25.8045 30.8841 26.0423 30.8421 26.2747 30.7849V30.9108H26.2745V31.4605C26.2745 31.6696 26.2255 31.8676 26.1385 32.0437C25.9215 32.483 25.4675 32.7861 24.9436 32.7861C24.4197 32.7861 23.9656 32.4829 23.7486 32.0437C23.6617 31.8676 23.6126 31.6697 23.6126 31.4605ZM26.2746 29.6058C26.6816 29.4757 27.0642 29.2857 27.4122 29.0407C27.8041 28.7649 28.1523 28.4202 28.4415 28.0131C29.665 26.2915 30.1224 24.3397 30.2922 23.0435H19.597C19.768 24.342 20.2261 26.2971 21.4456 28.0131C21.7348 28.4202 22.0831 28.765 22.4749 29.0407C22.8229 29.2856 23.2055 29.4757 23.6125 29.6058C24.034 29.7405 24.4814 29.8113 24.9436 29.8113C25.4057 29.8113 25.8531 29.7405 26.2746 29.6058Z" fill="#39ACFD"/>
<path d="M28.0471 19.8629C28.0314 19.8322 28.0118 19.8029 27.9891 19.7757C27.9664 19.7479 27.94 19.7221 27.911 19.6989C27.7647 19.5819 27.5472 19.5279 27.3423 19.5612C27.3019 19.5673 27.2622 19.5774 27.2244 19.59C27.1859 19.6026 27.1494 19.6183 27.1153 19.6364C27.0807 19.6545 27.0485 19.6757 27.0195 19.6989C26.9905 19.7221 26.964 19.7479 26.9413 19.7757C26.9187 19.8029 26.8991 19.8322 26.8833 19.8629C26.8676 19.8932 26.8556 19.925 26.8474 19.9573C26.8392 19.9896 26.8348 20.0229 26.8348 20.0557C26.8348 20.0884 26.8392 20.1218 26.8474 20.1545C26.855 20.184 26.8662 20.2134 26.8803 20.242C26.8815 20.2443 26.8822 20.2466 26.8833 20.2489C26.8991 20.2792 26.9187 20.3084 26.9413 20.3357C26.964 20.3634 26.9905 20.3892 27.0195 20.4124C27.0485 20.4356 27.0807 20.4568 27.1153 20.475C27.1494 20.4936 27.1859 20.5088 27.2244 20.5214C27.2622 20.534 27.3019 20.5441 27.3423 20.5501C27.3826 20.5567 27.4242 20.5602 27.4652 20.5602C27.631 20.5602 27.7937 20.5062 27.911 20.4124C27.94 20.3892 27.9664 20.3634 27.9891 20.3356C28.0118 20.3084 28.0314 20.2791 28.0471 20.2488C28.0483 20.2466 28.0491 20.2443 28.0502 20.242C28.0643 20.2133 28.0754 20.1839 28.0831 20.1545C28.0913 20.1217 28.0957 20.0884 28.0957 20.0556C28.0957 20.0228 28.0913 19.9895 28.0831 19.9572C28.0749 19.925 28.0629 19.8932 28.0471 19.8629Z" fill="#39ACFD"/>
<path d="M26.1366 26.885C26.0582 26.8689 25.976 26.868 25.8949 26.885H24.2444C24.1633 26.868 24.081 26.8689 24.0026 26.885C23.8344 26.9195 23.6847 27.0252 23.6078 27.1843C23.4781 27.4522 23.6033 27.7686 23.8875 27.8909C23.9382 27.9127 23.9895 27.9328 24.0411 27.9517C24.3721 28.0727 24.7208 28.1334 25.0697 28.1334C25.4185 28.1334 25.7673 28.0727 26.0982 27.9517C26.1498 27.9328 26.2011 27.9128 26.2518 27.8909C26.536 27.7686 26.6612 27.4522 26.5314 27.1842C26.4545 27.0252 26.3048 26.9195 26.1366 26.885Z" fill="#39ACFD"/>
</svg>
