<svg width="49" height="50" viewBox="0 0 49 50" fill="none" xmlns="http://www.w3.org/2000/svg">
<rect y="0.402832" width="49" height="49.0518" rx="10" fill="#F3F8FC"/>
<path fill-rule="evenodd" clip-rule="evenodd" d="M19.2242 23.5443L19.2251 23.5279C19.2465 23.135 19.1371 22.7461 18.9142 22.4219C18.2718 21.4867 18.2718 20.2533 18.9142 19.3179C19.1373 18.9937 19.2465 18.6048 19.2253 18.2119L19.2244 18.1964C19.1604 17.0808 19.7865 16.0358 20.8193 15.5349L20.8292 15.5302C21.1938 15.3561 21.4925 15.0692 21.6811 14.712L21.6851 14.7047C22.2055 13.7157 23.2831 13.1156 24.4289 13.1763L24.4463 13.1772C24.8625 13.2005 25.2756 13.0933 25.6277 12.8708C26.5994 12.2641 27.8328 12.2641 28.8044 12.8708H28.8049C29.1568 13.0935 29.5699 13.2007 29.9858 13.1774L30.0034 13.1765C31.149 13.1166 32.2269 13.716 32.7475 14.7052L32.7529 14.7158C32.9415 15.0713 33.2392 15.3565 33.6027 15.53L33.6121 15.5347C34.6459 16.0361 35.272 17.0808 35.208 18.1964L35.207 18.2128C35.1858 18.6057 35.2955 18.9944 35.5184 19.3186C36.1605 20.254 36.1605 21.4872 35.5182 22.4223C35.295 22.7468 35.1858 23.1357 35.207 23.5286L35.208 23.5441C35.272 24.6597 34.6459 25.7044 33.613 26.2056L33.6045 26.2098C33.2392 26.3839 32.9401 26.6711 32.751 27.0285L32.7485 27.0339C32.2269 28.0247 31.149 28.6249 30.0034 28.5642L29.986 28.5633C29.5699 28.54 29.1568 28.6472 28.8046 28.8699C27.833 29.4766 26.5996 29.4766 25.6279 28.8699C25.2758 28.6472 24.8627 28.54 24.4466 28.5633L24.4291 28.5642C23.2817 28.6244 22.2053 28.0247 21.6848 27.0355L21.6806 27.0278C21.4923 26.6713 21.1938 26.3846 20.8297 26.2108L20.8191 26.2056C19.7863 25.7046 19.1604 24.6597 19.2242 23.5443ZM20.1879 18.1569C20.2208 18.7631 20.052 19.3633 19.7077 19.8638V19.8643C19.2913 20.4698 19.2911 21.2687 19.707 21.8748C20.0511 22.375 20.2201 22.9752 20.1874 23.5814L20.1864 23.5986C20.1445 24.3251 20.5583 25.0085 21.2402 25.3393L21.2492 25.3438C21.7988 25.6067 22.2489 26.0391 22.5327 26.5772L22.5377 26.5864C22.9004 27.2539 23.6185 27.6506 24.3776 27.6024L24.3946 27.6017C24.4492 27.5987 24.5038 27.5972 24.5582 27.5972C25.1189 27.5968 25.6682 27.7556 26.1418 28.0552C26.799 28.4655 27.6332 28.4655 28.2904 28.0552C28.8113 27.726 29.4223 27.5674 30.0379 27.6017L30.0546 27.6027C30.825 27.6438 31.5481 27.245 31.8941 26.5875L31.8976 26.5805C32.1822 26.0405 32.6334 25.6067 33.1844 25.3431L33.1915 25.3398C33.8734 25.0087 34.2872 24.3254 34.2455 23.5986L34.2446 23.5824C34.2116 22.9761 34.3804 22.376 34.7245 21.8752C35.1409 21.2694 35.1412 20.4705 34.725 19.8645C34.3806 19.364 34.2116 18.7641 34.2446 18.1578L34.2455 18.1407C34.2872 17.4139 33.8734 16.7308 33.1917 16.3999L33.1837 16.3959C32.6339 16.133 32.1836 15.7004 31.8992 15.162L31.8929 15.1501C31.5481 14.4945 30.8273 14.0964 30.0543 14.1368L30.0374 14.1378C29.4221 14.1718 28.8113 14.0132 28.2906 13.6842C27.6332 13.2737 26.799 13.2737 26.1416 13.6842C25.6209 14.0137 25.0101 14.1721 24.3946 14.1375L24.3776 14.1368C23.6084 14.0959 22.8841 14.4945 22.5384 15.1519L22.5337 15.1609C22.2493 15.6999 21.7986 16.1332 21.248 16.3964L21.2398 16.4004C20.5687 16.7146 20.153 17.4012 20.1869 18.1404L20.1879 18.1569Z" fill="#39ACFD"/>
<path d="M24.0675 25.1937C24.2959 25.3351 24.5967 25.2659 24.7394 25.0396L30.518 15.8645C30.6123 15.7179 30.6201 15.5323 30.5382 15.3786C30.4563 15.2247 30.2972 15.1265 30.1219 15.1211C29.9465 15.1157 29.7817 15.2039 29.6903 15.3524L23.9119 24.5275C23.7693 24.7541 23.8388 25.0523 24.0675 25.1937Z" fill="#39ACFD"/>
<path fill-rule="evenodd" clip-rule="evenodd" d="M26.5405 18.1626C26.5405 19.4666 25.631 20.5276 24.5133 20.5276C23.3957 20.5276 22.4864 19.4666 22.4864 18.1626C22.4864 16.8586 23.3957 15.7979 24.5133 15.7979C25.631 15.7979 26.5405 16.8586 26.5405 18.1626ZM25.6225 18.1626C25.6225 17.3765 25.1249 16.737 24.5133 16.737C23.9019 16.737 23.4044 17.3768 23.4044 18.1626C23.4044 18.9484 23.9019 19.5883 24.5133 19.5883C25.1249 19.5883 25.6225 18.9486 25.6225 18.1626Z" fill="#39ACFD"/>
<path fill-rule="evenodd" clip-rule="evenodd" d="M29.9188 25.2622C28.8011 25.2622 27.8918 24.2014 27.8918 22.8973C27.8918 21.593 28.8011 20.5325 29.919 20.5325C31.0367 20.5325 31.9459 21.5937 31.9459 22.8973C31.9459 24.2012 31.0364 25.2622 29.9188 25.2622ZM29.9187 24.323C30.5304 24.323 31.0279 23.6834 31.0279 22.8974C31.0279 22.1108 30.5304 21.4718 29.9187 21.4718C29.3074 21.4718 28.8098 22.1113 28.8098 22.8974C28.8098 23.6834 29.3074 24.323 29.9187 24.323Z" fill="#39ACFD"/>
<path fill-rule="evenodd" clip-rule="evenodd" d="M30.1718 31.5801L34.015 29.8426C35.1972 29.2737 36.6379 29.6938 37.2876 30.7971C37.4155 31.0132 37.3451 31.2876 37.1269 31.4224L28.3764 36.8388C28.357 36.8507 28.3366 36.8612 28.3155 36.8704C27.4577 37.2473 26.5248 37.4419 25.581 37.4414C25.1352 37.4416 24.6905 37.3979 24.2543 37.3105C24.2435 37.3082 24.233 37.3059 24.2224 37.303L18.1873 35.6821C17.7539 35.5647 17.2899 35.6133 16.8932 35.8176L15.8825 36.3354L15.8715 36.7262C15.8641 36.9802 15.6468 37.1826 15.3811 37.1828H15.3675L11.4771 37.0804C11.2061 37.0733 10.9927 36.8573 11.0001 36.5981L11.2351 28.4287C11.2426 28.1695 11.468 27.9652 11.7389 27.9723L15.6293 28.0748C15.9003 28.0819 16.1137 28.2978 16.1063 28.5571L16.0838 29.3397C17.9303 28.4141 20.1335 28.4118 21.9819 29.3337L22.3429 29.5127C22.8424 29.7594 23.3936 29.8958 23.9553 29.9111L27.5032 30.0047C28.6233 30.0349 29.6412 30.6359 30.1718 31.5801ZM24.4715 36.393C25.6171 36.6172 26.8075 36.4902 27.8732 36.0299L36.1463 30.9089C35.6866 30.5016 35.0103 30.411 34.4512 30.682L34.4397 30.6873L30.4985 32.4695C30.5359 32.6703 30.552 32.8746 30.546 33.0786C30.5385 33.3326 30.3213 33.535 30.0558 33.5352H30.0419L24.2099 33.3816C23.939 33.3745 23.7256 33.1586 23.733 32.8993C23.7404 32.6401 23.9658 32.4358 24.2368 32.4429L29.5214 32.5821C29.3192 31.6477 28.4729 30.9688 27.4763 30.9415L23.9285 30.8479C23.2187 30.8285 22.5225 30.6563 21.8915 30.3446L21.5305 30.1655C19.7875 29.2965 17.6885 29.4036 16.0521 30.4452L15.9136 35.2528L16.4301 34.9883C17.0498 34.6695 17.7752 34.5933 18.4524 34.7767L24.4715 36.393Z" fill="#39ACFD"/>
<path d="M11.9946 36.1547L12.2025 28.9243L15.1122 29.0009L14.904 36.2314L11.9946 36.1547Z" fill="#39ACFD"/>
</svg>
