<svg width="49" height="50" viewBox="0 0 49 50" fill="none" xmlns="http://www.w3.org/2000/svg">
<rect y="0.200928" width="49" height="49.0513" rx="10" fill="#F3F8FC"/>
<path fill-rule="evenodd" clip-rule="evenodd" d="M36.916 26.9342C36.0774 25.2744 34.9194 23.6662 33.4552 22.161C31.6849 20.3295 29.9212 19.1048 29.0227 18.5382L32.417 13.124C32.5834 12.855 32.5301 12.523 32.2706 12.3113C31.3921 11.573 30.4603 11.2124 29.4221 11.2124C28.4704 11.2124 27.5985 11.5215 26.8398 11.7962L26.7775 11.8182C26.2017 12.022 25.6592 12.214 25.2159 12.214C25.0761 12.214 24.9563 12.1968 24.8365 12.1567C23.2525 11.6588 22.0346 11.3498 20.8566 11.3498C19.3658 11.3498 18.0946 11.8649 16.8501 12.9637C16.5905 13.1926 16.5506 13.5532 16.7569 13.8222L20.4174 18.5782C19.5122 19.1563 17.7818 20.3696 16.0448 22.161C14.5872 23.6662 13.4226 25.2744 12.584 26.9342C11.5324 29.0231 11 31.2037 11 33.4129C11 36.3489 13.7819 38.7412 17.1962 38.7412H32.3038C35.7181 38.7412 38.5 36.3489 38.5 33.4129C38.5 31.2037 37.9676 29.0231 36.916 26.9342ZM18.4606 13.5348C19.2327 12.9624 19.9714 12.7105 20.8566 12.7105C21.8016 12.7105 22.8665 12.9852 24.2841 13.4374C24.5769 13.529 24.8897 13.5748 25.2092 13.5748C25.9879 13.5748 26.7333 13.3115 27.4454 13.0539L27.4499 13.0523C28.1338 12.8068 28.7845 12.5731 29.4154 12.5731C29.7215 12.5731 30.1541 12.6189 30.6999 12.9509L27.5053 18.0568H21.9414L18.4606 13.5348ZM17.1961 37.3677H32.3038C34.8395 37.3677 36.9026 35.5935 36.8893 33.413C36.8893 29.7387 35.332 26.2648 32.2505 23.0713C30.3071 21.051 28.3372 19.792 27.7315 19.4314H21.755C21.156 19.7977 19.1794 21.051 17.236 23.0713C14.1612 26.2648 12.5972 29.7445 12.5972 33.413C12.5972 35.5935 14.6604 37.3677 17.1961 37.3677Z" fill="#39ACFD"/>
<path d="M20.4766 28.4902H19.5488V31H17.835V23.8906H20.6328C21.4759 23.8906 22.1351 24.0778 22.6104 24.4521C23.0856 24.8265 23.3232 25.3555 23.3232 26.0391C23.3232 26.5339 23.2223 26.944 23.0205 27.2695C22.8219 27.5951 22.5094 27.8587 22.083 28.0605L23.5674 30.9268V31H21.7314L20.4766 28.4902ZM19.5488 27.167H20.6328C20.9583 27.167 21.2025 27.0824 21.3652 26.9131C21.5312 26.7406 21.6143 26.5013 21.6143 26.1953C21.6143 25.8893 21.5312 25.6501 21.3652 25.4775C21.1992 25.3018 20.9551 25.2139 20.6328 25.2139H19.5488V27.167ZM26.0186 31H24.3682V23.5H26.0186V31ZM29.8027 29.5156C29.8027 29.3757 29.7295 29.2633 29.583 29.1787C29.4365 29.0941 29.1582 29.0062 28.748 28.915C28.3379 28.8239 27.9993 28.7051 27.7324 28.5586C27.4655 28.4089 27.262 28.2282 27.1221 28.0166C26.9821 27.805 26.9121 27.5625 26.9121 27.2891C26.9121 26.804 27.1123 26.4053 27.5127 26.0928C27.9131 25.777 28.4372 25.6191 29.085 25.6191C29.7816 25.6191 30.3415 25.777 30.7646 26.0928C31.1878 26.4085 31.3994 26.8236 31.3994 27.3379H29.749C29.749 26.9147 29.526 26.7031 29.0801 26.7031C28.9076 26.7031 28.7627 26.752 28.6455 26.8496C28.5283 26.944 28.4697 27.0628 28.4697 27.2061C28.4697 27.3525 28.5413 27.4714 28.6846 27.5625C28.8278 27.6536 29.0557 27.7285 29.3682 27.7871C29.6839 27.8457 29.9606 27.9157 30.1982 27.9971C30.9925 28.2705 31.3896 28.7604 31.3896 29.4668C31.3896 29.9486 31.1748 30.3408 30.7451 30.6436C30.3187 30.9463 29.7653 31.0977 29.085 31.0977C28.6325 31.0977 28.2288 31.0163 27.874 30.8535C27.5192 30.6908 27.2425 30.4694 27.0439 30.1895C26.8454 29.9095 26.7461 29.6149 26.7461 29.3057H28.2842C28.2907 29.5498 28.3721 29.7288 28.5283 29.8428C28.6846 29.9535 28.8848 30.0088 29.1289 30.0088C29.3535 30.0088 29.5212 29.9632 29.6318 29.8721C29.7458 29.7809 29.8027 29.6621 29.8027 29.5156Z" fill="#39ACFD"/>
</svg>
