<svg width="49" height="50" viewBox="0 0 49 50" fill="none" xmlns="http://www.w3.org/2000/svg">
<rect y="0.020874" width="49" height="49.051" rx="10" fill="#F3F8FC"/>
<path fill-rule="evenodd" clip-rule="evenodd" d="M26.6827 27.7059C26.385 28.1157 25.9263 28.3726 25.4232 28.4118C25.3777 28.4152 25.3328 28.4171 25.2878 28.4171C24.833 28.4171 24.3956 28.2371 24.0713 27.912C23.7151 27.5554 23.5328 27.0624 23.572 26.5587C23.6111 26.055 23.8678 25.5959 24.2757 25.2988L30.533 20.7671C30.7248 20.6288 30.9897 20.6496 31.1579 20.8175C31.3261 20.9858 31.3469 21.251 31.2082 21.4431L26.6827 27.7059ZM24.8436 26.076C24.6658 26.2055 24.5527 26.4071 24.5357 26.628C24.5183 26.8484 24.5986 27.0649 24.7542 27.221C24.9113 27.3781 25.1273 27.4545 25.3473 27.44C25.5681 27.4226 25.7697 27.3099 25.9002 27.1306L28.6605 23.3147L24.8436 26.076Z" fill="#39ACFD"/>
<path fill-rule="evenodd" clip-rule="evenodd" d="M36.2498 19.4971C36.2475 19.4922 36.2463 19.4873 36.2451 19.4823C36.2438 19.4769 36.2425 19.4714 36.2397 19.4661C36.2366 19.4609 36.2325 19.457 36.2285 19.4531C36.2249 19.4496 36.2214 19.4462 36.2184 19.4419C35.7298 18.6029 35.1517 17.8225 34.4953 17.1151L35.5335 16.0763L36.217 16.7605L38.2673 14.7075L36.217 12.6551L34.1662 14.7075L34.8501 15.3922L33.8119 16.431C33.1053 15.7739 32.3261 15.1948 31.4876 14.7056C31.4833 14.7027 31.4798 14.6991 31.4764 14.6955C31.4725 14.6915 31.4685 14.6874 31.4634 14.6843C31.4581 14.6813 31.4527 14.68 31.4473 14.6787C31.4423 14.6774 31.4373 14.6762 31.4325 14.6737C29.9375 13.8115 28.2579 13.2372 26.4672 13.0267V12.4504H27.1922C27.8587 12.4504 28.4005 11.9081 28.4005 11.2408C28.4005 10.5736 27.8582 10.0312 27.1917 10.0312H22.8417C22.1752 10.0312 21.6334 10.5736 21.6334 11.2408C21.6334 11.9081 22.1752 12.4504 22.8417 12.4504H23.5667V13.0098C23.0447 13.0654 22.5237 13.1506 22.0084 13.2686C21.7484 13.3281 21.5855 13.5879 21.6454 13.8482C21.7049 14.1086 21.9644 14.2721 22.2245 14.2116C22.6691 14.1095 23.1182 14.0326 23.5681 13.9808L24.0868 13.9407C24.2453 13.9286 24.3913 13.9199 24.5334 13.9131V14.8696C24.5334 15.1372 24.7494 15.3535 25.0167 15.3535C25.284 15.3535 25.5 15.1372 25.5 14.8696V13.9165C27.3178 14.0002 29.0308 14.4888 30.5538 15.293L30.0772 16.1189C29.9438 16.3507 30.0231 16.6463 30.2541 16.7798C30.33 16.8239 30.4131 16.8447 30.4953 16.8447C30.6625 16.8447 30.8249 16.758 30.9143 16.6027L31.3894 15.7788C32.9018 16.7392 34.1865 18.0252 35.1459 19.5391L34.3228 20.0148C34.0922 20.1483 34.013 20.4439 34.1469 20.6757C34.2368 20.831 34.3987 20.9176 34.5659 20.9176C34.6481 20.9176 34.7312 20.8968 34.8071 20.8528L35.6321 20.3757C36.4466 21.922 36.9362 23.6648 37.0092 25.5136H36.0546C35.7873 25.5136 35.5712 25.7299 35.5712 25.9974C35.5712 26.265 35.7873 26.4813 36.0546 26.4813H37.0092C36.9362 28.33 36.4466 30.0728 35.6321 31.6191L34.8071 31.1421C34.5761 31.0085 34.2803 31.0869 34.1469 31.3191C34.0135 31.5509 34.0927 31.8465 34.3238 31.9801L35.1469 32.4557C34.1875 33.9696 32.9028 35.2557 31.3904 36.2161L30.9153 35.3921C30.7814 35.1599 30.4851 35.081 30.2551 35.215C30.0235 35.3485 29.9443 35.6447 30.0782 35.8759L30.5547 36.7018C29.0317 37.506 27.3188 37.9947 25.501 38.0784V37.1262C25.501 36.8586 25.2849 36.6423 25.0177 36.6423C24.7504 36.6423 24.5343 36.8586 24.5343 37.1262V38.0822C23.7624 38.0556 22.9881 37.9589 22.2259 37.7837C21.9659 37.7213 21.7063 37.8868 21.6469 38.1471C21.587 38.4074 21.7498 38.6672 22.0099 38.7267C22.9746 38.9493 23.9601 39.0615 24.9379 39.0615C24.9521 39.0615 24.9659 39.061 24.9797 39.0605C24.9891 39.0601 24.9985 39.0598 25.008 39.0596C25.009 39.0596 25.0098 39.0597 25.0107 39.06C25.0114 39.0602 25.012 39.0604 25.0127 39.0606C25.0135 39.0609 25.0144 39.0612 25.0152 39.0614C25.0157 39.0615 25.0162 39.0615 25.0167 39.0615C25.0186 39.0615 25.0204 39.0609 25.0222 39.0603C25.0241 39.0597 25.0259 39.0591 25.0278 39.0591C27.3512 39.0431 29.531 38.4151 31.417 37.3304C31.4228 37.3277 31.4288 37.3256 31.4348 37.3235C31.4442 37.3201 31.4536 37.3168 31.4624 37.3115C31.4676 37.3084 31.4715 37.3043 31.4754 37.3003C31.4789 37.2967 31.4823 37.2931 31.4866 37.2902C33.4388 36.1512 35.07 34.5202 36.2102 32.5674C36.214 32.5621 36.2181 32.5573 36.2223 32.5524C36.2283 32.5454 36.2343 32.5383 36.2392 32.5297C36.2423 32.5242 36.2436 32.5186 36.2449 32.513C36.246 32.5082 36.2471 32.5034 36.2494 32.4987C37.3533 30.5827 37.9879 28.3639 37.9879 25.9979C37.9879 23.6319 37.3533 21.4131 36.2498 19.4971ZM36.2165 14.0192L36.8999 14.7027L36.2165 15.3866L35.5326 14.7027L36.2165 14.0192ZM24.5334 11.4813V12.9414C24.5681 12.94 24.601 12.9395 24.6339 12.9391C24.6558 12.9389 24.6777 12.9386 24.7001 12.938C24.7335 12.9374 24.7669 12.9361 24.8002 12.9348C24.8461 12.933 24.892 12.9313 24.9379 12.9313C24.9439 12.9313 24.95 12.9315 24.956 12.9317C24.9621 12.932 24.9681 12.9322 24.9742 12.9322C24.9809 12.9322 24.9882 12.932 24.9954 12.9317C25.0027 12.9315 25.0099 12.9313 25.0167 12.9313C25.1714 12.9313 25.3318 12.9346 25.5 12.9414V11.4813H27.1917C27.3246 11.4813 27.4334 11.3725 27.4334 11.2396C27.4334 11.1067 27.3246 10.9979 27.1917 10.9979H22.8417C22.7088 10.9979 22.6 11.1067 22.6 11.2396C22.6 11.3725 22.7088 11.4813 22.8417 11.4813H24.5334Z" fill="#39ACFD"/>
<path d="M20.6666 16.8051H18.25C17.9827 16.8051 17.7666 17.0211 17.7666 17.2884C17.7666 17.5557 17.9827 17.7717 18.25 17.7717H20.6666C20.9339 17.7717 21.15 17.5557 21.15 17.2884C21.15 17.0211 20.9339 16.8051 20.6666 16.8051Z" fill="#39ACFD"/>
<path d="M20.6667 20.1919H15.8334C15.5661 20.1919 15.35 20.4079 15.35 20.6752C15.35 20.9425 15.5661 21.1586 15.8334 21.1586H20.6667C20.934 21.1586 21.15 20.9425 21.15 20.6752C21.15 20.4079 20.934 20.1919 20.6667 20.1919Z" fill="#39ACFD"/>
<path d="M20.6667 23.5787H13.4167C13.1494 23.5787 12.9333 23.7948 12.9333 24.0621C12.9333 24.3294 13.1494 24.5454 13.4167 24.5454H20.6667C20.934 24.5454 21.15 24.3294 21.15 24.0621C21.15 23.7948 20.934 23.5787 20.6667 23.5787Z" fill="#39ACFD"/>
<path d="M20.6667 26.9656H11.4833C11.216 26.9656 11 27.1816 11 27.4489C11 27.7162 11.216 27.9322 11.4833 27.9322H20.6667C20.9339 27.9322 21.15 27.7162 21.15 27.4489C21.15 27.1816 20.9339 26.9656 20.6667 26.9656Z" fill="#39ACFD"/>
<path d="M20.6666 30.3525H14.3833C14.116 30.3525 13.9 30.5686 13.9 30.8359C13.9 31.1032 14.116 31.3192 14.3833 31.3192H20.6666C20.9339 31.3192 21.15 31.1032 21.15 30.8359C21.15 30.5686 20.9339 30.3525 20.6666 30.3525Z" fill="#39ACFD"/>
<path d="M20.6667 33.7394H17.2834C17.0161 33.7394 16.8 33.9554 16.8 34.2227C16.8 34.49 17.0161 34.706 17.2834 34.706H20.6667C20.934 34.706 21.15 34.49 21.15 34.2227C21.15 33.9554 20.934 33.7394 20.6667 33.7394Z" fill="#39ACFD"/>
</svg>
